<?xml version="1.0" encoding="UTF-8" standalone="no"?>
<!DOCTYPE svg PUBLIC "-//W3C//DTD SVG 1.1//EN" "http://www.w3.org/Graphics/SVG/1.1/DTD/svg11.dtd">
<!-- Created with Vectornator (http://vectornator.io/) -->
<svg height="100%" stroke-miterlimit="10" style="fill-rule:nonzero;clip-rule:evenodd;stroke-linecap:round;stroke-linejoin:round;" version="1.1" viewBox="0 0 1024 1024" width="100%" xml:space="preserve" xmlns="http://www.w3.org/2000/svg" xmlns:vectornator="http://vectornator.io" xmlns:xlink="http://www.w3.org/1999/xlink">
<defs/>
<g id="图层-4" vectornator:layerName="图层 4">
<path d="M89.9879 543.667L185.584 964.29L499.686 1005.26L813.787 964.29L909.383 543.667L499.686 756.082" fill="#ffffff" fill-rule="evenodd" opacity="1" stroke="none"/>
</g>
<g id="图层-1" vectornator:layerName="图层 1">
<g opacity="1">
<path d="M740.023 458.987L909.383 543.667L499.686 748.516L89.9879 543.667L261.523 457.9" fill="#ffffff" fill-rule="evenodd" opacity="1" stroke="none"/>
<path d="M260.653 443.974C258.846 444.089 256.996 444.566 255.275 445.425C210.279 467.936 165.284 490.471 120.289 512.982C116.18 515.038 112.106 517.073 107.998 519.128C104.969 520.644 101.936 522.179 98.907 523.695C96.8818 524.708 94.8305 525.712 92.8039 526.725C90.6762 527.79 88.5744 528.861 86.4454 529.926C84.8899 530.705 83.2375 531.43 81.8786 532.529C80.1156 533.955 78.601 535.762 77.697 537.863C77.2627 538.874 76.9131 539.939 76.7151 541.021C76.3054 543.259 76.4638 545.623 77.0988 547.807C77.895 550.539 79.6567 552.935 81.8363 554.721C83.3672 555.975 85.1945 556.827 86.9575 557.708C89.092 558.774 91.2675 559.8 93.4021 560.867C95.0026 561.665 96.5813 562.498 98.1819 563.299C122.19 575.296 146.212 587.278 170.22 599.276C249.181 638.732 328.171 678.137 407.162 717.532C428.512 728.18 449.871 738.808 471.22 749.456C476.557 752.118 481.887 754.816 487.224 757.478C491.301 759.511 495.342 762.043 500.069 761.916C504.587 761.796 508.692 759.189 512.617 757.222C518.574 754.237 524.542 751.246 530.498 748.26C552.243 737.36 574.008 726.469 595.752 715.57C673.187 676.755 750.585 637.92 828.042 599.147C852.431 586.938 876.843 574.739 901.232 562.53C903.809 561.241 906.38 559.937 908.957 558.647C913.158 556.544 918.025 554.711 920.393 550.325C920.893 549.4 921.31 548.436 921.59 547.423C921.896 546.314 922.113 545.159 922.144 544.009C922.174 542.893 922.035 541.772 921.803 540.679C921.205 537.867 919.567 535.366 917.449 533.467C915.238 531.486 911.048 529.71 908.488 528.432C906.97 527.674 905.437 526.927 903.921 526.171C901.647 525.033 899.366 523.893 897.093 522.756C894.819 521.619 892.538 520.479 890.264 519.342C886.473 517.447 882.703 515.561 878.913 513.665C834.585 491.509 790.258 469.332 745.93 447.175C739.415 443.917 731.478 446.591 728.221 453.108C724.962 459.623 727.594 467.517 734.109 470.775C771.817 489.634 809.539 508.506 847.246 527.364C858.104 532.795 868.95 538.236 879.809 543.667C876.131 545.504 872.433 547.336 868.755 549.172C846.735 560.17 824.755 571.165 802.734 582.163C733.739 616.62 664.723 651.063 595.708 685.483C573.15 696.733 550.581 707.989 528.023 719.239C520.225 723.129 512.434 727.002 504.636 730.891C502.999 731.708 501.365 732.507 499.728 733.323C497.476 732.194 495.194 731.081 492.942 729.952C484.945 725.943 476.956 721.926 468.958 717.917C444.965 705.89 420.957 693.882 396.962 681.856C325.515 646.041 254.072 610.239 182.596 574.479C163.395 564.873 144.185 555.28 124.983 545.674C123.662 545.013 122.334 544.371 121.014 543.71C131.88 538.281 142.754 532.836 153.619 527.408C191.664 508.397 229.692 489.359 267.737 470.348C274.62 466.908 277.408 458.539 273.968 451.656C271.387 446.494 266.071 443.63 260.653 443.974Z" fill="#000000" fill-rule="evenodd" opacity="1" stroke="none"/>
</g>
<path d="M499.26 325.461C495.352 325.566 492.21 327.396 488.845 329.088C484.587 331.231 480.302 333.39 476.043 335.533C459.444 343.882 442.839 352.233 426.239 360.584C369.403 389.174 312.514 417.639 255.616 446.107C249.101 449.366 246.469 457.303 249.728 463.819C252.985 470.336 260.922 472.966 267.439 469.709C320.474 443.21 373.488 416.672 426.581 390.287C443.9 381.68 461.199 373.075 478.518 364.467C484.388 361.55 490.274 358.636 496.143 355.719C497.308 355.14 498.478 354.591 499.643 354.011C501.264 354.827 502.887 355.628 504.508 356.444C510.088 359.25 515.701 362.044 521.28 364.851C538.847 373.688 556.414 382.528 573.986 391.354C627.236 418.099 680.529 444.779 733.812 471.458C740.693 474.9 749.062 472.11 752.503 465.227C755.945 458.345 753.155 449.976 746.272 446.535C687.518 417.201 628.765 387.84 569.975 358.578C553.96 350.607 537.897 342.682 521.878 334.722C518.345 332.965 514.827 331.186 511.294 329.43C507.445 327.518 503.733 325.339 499.26 325.461Z" fill="#000000" fill-rule="evenodd" opacity="0" stroke="none"/>
<path d="M907.164 530.651C902.099 531.525 897.779 535.359 896.538 540.679C864.623 677.234 832.183 813.665 800.215 950.208C798.467 957.701 803.135 965.188 810.63 966.937C818.123 968.685 825.61 964.017 827.359 956.523C859.123 819.933 890.413 683.232 922.229 546.655C923.884 539.561 919.465 532.477 912.372 530.822C910.597 530.408 908.852 530.359 907.164 530.651Z" fill="#000000" fill-rule="evenodd" opacity="1" stroke="none"/>
<path d="M92.2071 530.651C90.5192 530.359 88.7738 530.408 86.9998 530.822C79.9066 532.477 75.4873 539.561 77.1425 546.655C108.958 683.232 140.248 819.933 172.012 956.523C173.762 964.017 181.248 968.685 188.741 966.937C196.236 965.188 200.904 957.701 199.156 950.208C167.189 813.664 134.749 677.234 102.833 540.679C101.592 535.359 97.2723 531.525 92.2071 530.651Z" fill="#000000" fill-rule="evenodd" opacity="1" stroke="none"/>
<path d="M499.686 742.883C492.401 742.883 486.499 748.785 486.499 756.07C486.447 835.734 485.876 915.396 485.772 995.06C485.772 1002.76 491.992 1009.02 499.686 1009.02C507.38 1009.02 513.598 1002.76 513.599 995.06C513.495 915.396 512.924 835.734 512.872 756.07C512.872 748.785 506.97 742.883 499.686 742.883Z" fill="#000000" fill-rule="evenodd" opacity="1" stroke="none"/>
</g>
<g id="图层-2" vectornator:layerName="图层 2">
<path d="M226.554 322.342C226.603 171.495 348.928 49.2496 499.774 49.2988C650.621 49.3479 772.867 171.673 772.818 322.519C772.768 473.366 650.444 595.612 499.597 595.562C348.75 595.513 226.505 473.188 226.554 322.342Z" fill="#ffffff" fill-rule="evenodd" opacity="1" stroke="#000000" stroke-linecap="round" stroke-linejoin="round" stroke-width="19.2138"/>
</g>
<clipPath id="ArtboardFrame">
<rect height="1024" width="1024" x="0" y="0"/>
</clipPath>
<g clip-path="url(#ArtboardFrame)" id="图层-3" vectornator:layerName="图层 3">
<path d="M226.554 322.431L772.818 322.431" fill="none" fill-rule="evenodd" opacity="1" stroke="#000000" stroke-linecap="round" stroke-linejoin="round" stroke-width="19.2138"/>
<path d="M499.686 49.2988L499.686 595.562" fill="none" fill-rule="evenodd" opacity="1" stroke="#000000" stroke-linecap="round" stroke-linejoin="round" stroke-width="19.2138"/>
<path d="M692.932 130.177C647.921 151.615 578.091 165.38 499.686 165.38C420.886 165.38 350.744 151.476 305.759 129.852" fill="none" fill-rule="evenodd" opacity="1" stroke="#000000" stroke-linecap="round" stroke-linejoin="round" stroke-width="19.2138"/>
<path d="M305.759 129.852C273.242 114.222 253.867 94.5581 253.867 73.1978C253.867 22.2874 363.924-18.9842 499.686-18.9842C635.447-18.9842 745.504 22.2874 745.504 73.1978C745.504 94.7069 725.859 114.495 692.932 130.177" fill="none" fill-rule="evenodd" opacity="0" stroke="#000000" stroke-linecap="round" stroke-linejoin="round" stroke-width="19.2138"/>
<path d="M700.458 497.978C728.831 513.007 745.504 531.363 745.504 551.179C745.504 602.089 635.447 643.361 499.686 643.361C363.924 643.361 253.867 602.089 253.867 551.179C253.867 532.162 269.224 514.49 295.539 499.811" fill="none" fill-rule="evenodd" opacity="0" stroke="#000000" stroke-linecap="round" stroke-linejoin="round" stroke-width="19.2138"/>
<path d="M295.539 499.811C339.674 475.193 414.637 458.997 499.686 458.997C582.606 458.997 655.936 474.393 700.458 497.978" fill="none" fill-rule="evenodd" opacity="1" stroke="#000000" stroke-linecap="round" stroke-linejoin="round" stroke-width="19.2138"/>
<path d="M480.513 589.726C510.345 615.171 544.853 629.704 581.625 629.704C694.761 629.704 786.474 492.133 786.474 322.431C786.474 152.728 694.761 15.1573 581.625 15.1573C544.397 15.1573 509.488 30.0539 479.404 56.0888" fill="none" fill-rule="evenodd" opacity="0" stroke="#000000" stroke-linecap="round" stroke-linejoin="round" stroke-width="19.2138"/>
<path d="M479.404 56.0888C418.063 109.175 376.776 208.57 376.776 322.431C376.776 436.975 418.56 536.881 480.513 589.726" fill="none" fill-rule="evenodd" opacity="1" stroke="#000000" stroke-linecap="round" stroke-linejoin="round" stroke-width="19.2138"/>
<path d="M516.319 591.855C579.667 539.596 622.595 438.533 622.595 322.431C622.595 205.146 578.789 103.211 514.38 51.4265" fill="none" fill-rule="evenodd" opacity="1" stroke="#000000" stroke-linecap="round" stroke-linejoin="round" stroke-width="19.2138"/>
<path d="M514.38 51.4265C485.593 28.2826 452.692 15.1573 417.746 15.1573C304.611 15.1573 212.897 152.728 212.897 322.431C212.897 492.133 304.611 629.704 417.746 629.704C453.479 629.704 487.075 615.98 516.319 591.855" fill="none" fill-rule="evenodd" opacity="0" stroke="#000000" stroke-linecap="round" stroke-linejoin="round" stroke-width="19.2138"/>
</g>
</svg>
